<svg xmlns="http://www.w3.org/2000/svg" width="200" height="200" viewBox="0 0 48 48">
  <rect width="48" height="48" fill="#FFBC5E" />
  <rect x="2" y="2" width="6" height="6" fill="#000" />
  <rect x="10" y="2" width="6" height="6" fill="#000" />
  <rect x="18" y="2" width="6" height="6" fill="#000" />
  <rect x="26" y="2" width="6" height="6" fill="#000" />
  <rect x="34" y="2" width="6" height="6" fill="#000" />
  <rect x="2" y="10" width="6" height="6" fill="#000" />
  <rect x="10" y="10" width="6" height="6" fill="#000" />
  <rect x="18" y="10" width="6" height="6" fill="#000" />
  <rect x="26" y="10" width="6" height="6" fill="#000" />
  <rect x="34" y="10" width="6" height="6" fill="#000" />
  <rect x="2" y="18" width="6" height="6" fill="#000" />
  <rect x="10" y="18" width="6" height="6" fill="#000" />
  <rect x="18" y="18" width="6" height="6" fill="#000" />
  <rect x="26" y="18" width="6" height="6" fill="#000" />
  <rect x="34" y="18" width="6" height="6" fill="#000" />
  <rect x="2" y="26" width="6" height="6" fill="#000" />
  <rect x="10" y="26" width="6" height="6" fill="#000" />
  <rect x="18" y="26" width="6" height="6" fill="#000" />
  <rect x="26" y="26" width="6" height="6" fill="#000" />
  <rect x="34" y="26" width="6" height="6" fill="#000" />
  <rect x="2" y="34" width="6" height="6" fill="#000" />
  <rect x="10" y="34" width="6" height="6" fill="#000" />
  <rect x="18" y="34" width="6" height="6" fill="#000" />
  <rect x="26" y="34" width="6" height="6" fill="#000" />
  <rect x="34" y="34" width="6" height="6" fill="#000" />
</svg>
